PathFileType	4	(X/Y/Z)	..\data\2014022\dynamic\2014022_C5_02.trc
DataRate	CameraRate	NumFrames	NumMarkers	Units	OrigDataRate	OrigDataStartFrame	OrigNumFrames
100.000000	100.000000	4	52	mm	100.000000	90	145
Frame#	Time	L_IAS			L_IPS			R_IPS			R_IAS			L_FTC			L_FLE			L_FME			L_FAX			L_TTC			L_FAL			L_TAM			L_FCC			L_FM1			L_FM2			L_FM5			R_FTC			R_FLE			R_FME			R_FAX			R_TTC			R_FAL			R_TAM			R_FCC			R_FM1			R_FM2			R_FM5			CV7			TV10			SXS			SJN			L_SIA			L_SRS			L_SAA			L_SAE			L_HLE			L_HME			L_UOA			L_RSP			L_UHE			L_HM2			L_HM5			R_SIA			R_SRS			R_SAA			R_SAE			R_HLE			R_HME			R_UOA			R_RSP			R_UHE			R_HM2			R_HM5			
		X1	Y1	Z1	X2	Y2	Z2	X3	Y3	Z3	X4	Y4	Z4	X5	Y5	Z5	X6	Y6	Z6	X7	Y7	Z7	X8	Y8	Z8	X9	Y9	Z9	X10	Y10	Z10	X11	Y11	Z11	X12	Y12	Z12	X13	Y13	Z13	X14	Y14	Z14	X15	Y15	Z15	X16	Y16	Z16	X17	Y17	Z17	X18	Y18	Z18	X19	Y19	Z19	X20	Y20	Z20	X21	Y21	Z21	X22	Y22	Z22	X23	Y23	Z23	X24	Y24	Z24	X25	Y25	Z25	X26	Y26	Z26	X27	Y27	Z27	X28	Y28	Z28	X29	Y29	Z29	X30	Y30	Z30	X31	Y31	Z31	X32	Y32	Z32	X33	Y33	Z33	X34	Y34	Z34	X35	Y35	Z35	X36	Y36	Z36	X37	Y37	Z37	X38	Y38	Z38	X39	Y39	Z39	X40	Y40	Z40	X41	Y41	Z41	X42	Y42	Z42	X43	Y43	Z43	X44	Y44	Z44	X45	Y45	Z45	X46	Y46	Z46	X47	Y47	Z47	X48	Y48	Z48	X49	Y49	Z49	X50	Y50	Z50	X51	Y51	Z51	X52	Y52	Z52	

91	0.9	1176.252075195313	910.485290527344	-368.9027099609376	977.369812011719	919.0834960937502	-328.8770446777344	962.7813110351565	928.535583496094	-224.5979156494141	1138.650146484375	910.255554199219	-119.7819976806641	1109.623168945313	841.581237792969	-446.6125793457032	1283.402709960938	455.9071655273439	-394.7122802734376	1261.474487304688	437.1867675781251	-259.8013305664063	1278.856323242188	399.7756347656251	-396.2466430664064	1350.889404296875	417.4537658691407	-341.8581848144532	1434.026123046875	80.1926727294922	-347.9307250976563	1449.243774414063	106.1467819213867	-265.9341735839844	1428.979858398438	20.60663795471192	-292.8989868164063	1590.281127929688	107.249267578125	-262.8108825683594	1583.81298828125	120.4698333740235	-321.8065795898438	1562.171508789063	78.6265335083008	-362.9599914550782	1029.710205078125	855.0360107421877	-86.6054153442383	919.2092895507815	458.1077880859376	-136.2685546875	934.1812744140627	463.6146545410157	-271.5961608886719	883.467224121094	415.7436828613282	-137.7667388916016	941.845153808594	379.9294738769532	-189.6186828613282	736.4494018554689	100.8796920776367	-194.1363830566407	747.1717529296876	110.1950225830078	-280.8352966308594	681.2584838867189	67.9190139770508	-237.0099029541016	853.341003417969	15.37459182739258	-290.8838806152344	869.5242919921877	33.56670761108399	-230.202621459961	827.254333496094	24.81283569335938	-175.7710571289063	1030.224731445313	1399.364990234375	-273.9866027832032	951.2496337890627	1184.793212890625	-255.706039428711	1186.088745117188	1108.1279296875	-269.8262329101563	1147.352294921875	1330.60791015625	-278.5723571777344	939.5049438476565	1210.884887695313	-335.1899719238282	984.005310058594	1349.88427734375	-329.6849365234376	1008.518127441406	1354.534057617188	-400.0725708007814	1053.544555664063	1338.023559570313	-454.9209594726564	912.8618164062502	1057.147094726563	-495.0208435058595	937.5527343750002	1033.777465820313	-409.7474060058595	902.2977294921877	1038.739135742188	-456.0071411132814	898.8420410156252	804.8393554687502	-518.2006835937501	837.6492919921877	848.1460571289065	-532.5236206054689	867.4432373046877	727.1614379882814	-546.7545776367189	785.9990234375002	788.0715332031252	-525.8942260742189	950.222106933594	1219.814208984375	-168.1377563476563	995.481628417969	1357.621459960938	-193.0988006591797	1036.605590820313	1363.486206054688	-118.027572631836	1086.5263671875	1365.127075195313	-92.53701782226564	1119.991333007813	1046.64794921875	-25.35408592224122	1119.46875	1028.58251953125	-107.5677719116211	1117.093383789063	1013.300109863281	-56.5211524963379	1352.869750976563	946.1560668945315	-46.37286376953126	1308.410888671875	899.5640869140627	-10.18079376220703	1431.755737304688	909.3999023437502	-35.38354110717774	1362.559692382813	835.5823974609377	-19.75959396362305	
92	0.91	1195.832275390625	909.1264648437502	-368.2744445800782	996.611022949219	917.992858886719	-330.1797790527344	981.847106933594	927.6434326171877	-225.9953155517579	1156.985595703125	908.9536743164065	-119.5686264038086	1129.679565429688	840.4641113281252	-446.9823608398439	1301.230102539063	454.2374267578126	-394.2004699707032	1278.89404296875	435.6557922363282	-258.9437866210938	1296.445068359375	397.9944458007814	-395.4557495117189	1368.14794921875	416.0122070312501	-340.7832641601563	1450.636352539063	79.34332275390626	-345.9570922851563	1465.401000976563	105.1203536987305	-263.7920532226563	1444.790283203125	19.93707084655762	-291.0714111328126	1606.196411132813	105.2514724731446	-259.4652404785157	1600.478393554688	118.1017532348633	-318.6437377929688	1578.890502929688	76.41430664062501	-359.7593078613282	1046.709716796875	853.9373779296877	-88.26475524902345	936.2761230468752	456.9717407226564	-136.0852813720703	951.9846191406252	461.983367919922	-271.0203552246094	899.3770751953127	415.3929443359376	-137.4363708496094	957.2613525390627	377.8659057617188	-189.1803283691407	741.0666503906251	106.1880035400391	-192.7052917480469	752.2072143554689	114.897201538086	-279.1818237304688	684.8654174804689	76.09558868408205	-235.5203552246094	852.008728027344	14.80389499664307	-291.0029602050782	869.245300292969	33.18640899658204	-230.5186157226563	827.6168212890627	24.7023105621338	-175.9357452392578	1047.958618164063	1397.870239257813	-275.2869873046876	969.807312011719	1183.061157226563	-256.4024963378907	1204.865478515625	1107.193359375	-270.4858398437501	1165.391723632813	1329.391235351563	-279.7731933593751	957.9068603515627	1208.978515625	-335.8055419921876	1001.936584472656	1348.171875	-330.8118591308594	1026.459106445313	1352.882202148438	-401.2650146484376	1071.187377929688	1336.49365234375	-456.0459289550782	928.1277465820315	1057.194213867188	-495.3738708496095	953.1960449218752	1033.450073242188	-410.3078918457032	917.745544433594	1039.064697265625	-456.4280700683595	909.549499511719	805.3501586914065	-518.7505493164064	849.0393066406252	849.8787841796877	-532.4888305664064	875.8625488281252	728.1956176757814	-546.8804931640626	796.1304321289065	791.091003417969	-525.3553466796876	968.6250610351565	1218.201904296875	-169.026351928711	1013.368225097656	1356.190551757813	-194.3448181152344	1054.355102539063	1362.2939453125	-119.2623825073242	1104.452880859375	1364.001586914063	-93.71025848388673	1136.659790039063	1045.625	-25.77809715270997	1135.80078125	1027.257690429688	-107.8686141967774	1133.997192382813	1011.977355957031	-56.78489303588869	1370.441772460938	947.1795043945315	-47.46900939941407	1327.023803710938	900.413513183594	-10.62752437591553	1449.83642578125	911.5437011718752	-36.85754013061524	1381.795776367188	836.8937988281252	-20.24724960327149	
93	0.92	1215.515625	908.1922607421877	-367.8863525390626	1015.931884765625	917.4470214843752	-331.1551818847657	1001.328430175781	927.159851074219	-226.8305206298829	1175.9521484375	907.8305664062502	-119.7422714233399	1149.681884765625	839.9453735351565	-447.4008178710939	1319.447265625	453.2739868164064	-393.5063781738282	1296.99462890625	435.0911865234376	-257.9982604980469	1313.977783203125	396.8078002929689	-394.5974121093751	1385.375732421875	414.6506347656251	-339.5897216796876	1463.9267578125	77.98007965087892	-343.9953002929688	1478.640014648438	103.2910232543946	-261.6759033203126	1456.645141601563	19.03999137878418	-289.3917541503907	1619.0146484375	100.7313842773438	-256.5792846679688	1614.074829101563	113.3553543090821	-315.9600219726563	1591.880126953125	72.39839935302736	-357.0219116210938	1064.691040039063	852.7512207031252	-89.56109619140626	954.9722290039065	455.394256591797	-135.6961517333985	971.2754516601565	459.836395263672	-270.1897277832032	916.8457031250002	414.7280883789064	-136.8517150878907	974.1251220703127	375.4286499023438	-188.4481506347657	746.8256225585939	112.1913757324219	-191.0452728271485	758.4788208007814	120.0708084106446	-277.2659912109376	689.8696289062501	85.40435028076173	-233.9030456542969	850.452575683594	14.67650032043457	-291.1650695800782	868.8220825195315	32.89042282104493	-230.929183959961	827.9581298828127	24.85324287414551	-176.193832397461	1065.81005859375	1396.720336914063	-276.7940673828126	988.5750732421877	1181.630249023438	-257.2353210449219	1223.917724609375	1106.872436523438	-271.3006286621094	1183.526000976563	1328.61376953125	-281.1070861816407	976.4390869140627	1207.435913085938	-336.6421508789063	1020.028198242188	1346.790649414063	-332.1813659667969	1044.59033203125	1351.555419921875	-402.6754150390626	1089.072509765625	1335.30126953125	-457.3496093750001	944.1480102539065	1057.36865234375	-495.923065185547	969.4914550781252	1033.403076171875	-411.0003662109376	933.8824462890627	1039.494750976563	-457.0148010253907	921.5607910156252	805.979675292969	-519.2088012695314	861.7163696289065	851.5952148437502	-532.5858764648439	885.7984619140627	729.2753906250001	-546.7835693359376	807.6687011718752	793.972595214844	-524.9548339843751	987.169616699219	1216.871459960938	-170.1216278076172	1031.32568359375	1355.059814453125	-195.8282012939454	1072.141357421875	1361.385498046875	-120.6951293945313	1122.317260742188	1363.240356445313	-95.01636505126955	1152.956665039063	1044.905639648438	-26.41036987304688	1151.90283203125	1026.330688476563	-108.3653640747071	1150.568115234375	1011.009704589844	-57.28804779052736	1387.287475585938	947.6453247070315	-48.30669403076173	1344.599365234375	900.8712158203127	-10.95779609680176	1467.0283203125	912.7926025390627	-37.93363189697266	1399.80029296875	837.580505371094	-20.51136779785157	
94	0.93	1235.237915039063	907.6965332031252	-367.7748718261719	1035.28173828125	917.4067382812502	-331.7797241210938	1021.133666992188	926.985534667969	-227.0769958496094	1195.474487304688	906.832946777344	-120.3095703125	1169.600830078125	840.0449218750002	-447.8721313476564	1337.94970703125	452.9624328613282	-392.6737060546876	1315.512451171875	435.3498535156251	-257.0448303222657	1331.449340820313	396.1761169433595	-393.726287841797	1402.531127929688	413.402313232422	-338.2970886230469	1474.373413085938	76.19223022460939	-342.0743713378907	1489.366088867188	100.8038635253907	-259.6097717285157	1465.088256835938	17.98803329467774	-287.8938293457032	1629.186279296875	94.01157379150392	-254.1463317871094	1625.052856445313	106.5617980957032	-313.7405090332032	1601.64453125	66.8878860473633	-354.7830200195313	1083.644775390625	851.3922119140627	-90.42777252197267	975.3450317382815	453.3335266113282	-135.0768737792969	992.2073364257815	457.0811157226564	-269.0913391113282	935.950134277344	413.716033935547	-135.9898223876953	992.5029296875002	372.5942077636719	-187.3678741455078	753.9239501953126	118.9012451171875	-189.1909637451172	766.1812133789064	125.7407836914063	-275.1224670410157	696.5306396484376	95.86145782470705	-232.2019195556641	848.8743286132815	15.19213676452637	-291.3514709472657	868.377868652344	32.76892471313477	-231.4122009277344	828.3941650390627	25.42211341857911	-176.5407104492188	1083.7783203125	1395.915161132813	-278.4886474609376	1007.501525878906	1180.5205078125	-258.2002258300782	1243.176025390625	1107.097045898438	-272.2355651855469	1201.743896484375	1328.250122070313	-282.5489501953126	995.0847778320315	1206.268310546875	-337.7037658691407	1038.279052734375	1345.745239257813	-333.7815551757813	1062.91748046875	1350.545166015625	-404.2855834960939	1107.223754882813	1334.422485351563	-458.8196411132814	960.929870605469	1057.622436523438	-496.6748352050782	986.4480590820315	1033.587524414063	-411.8233337402345	950.7257080078127	1039.984985351563	-457.7688598632814	934.8967895507815	806.656677246094	-519.6065063476564	875.6824951171877	853.2203369140627	-532.8334960937501	897.2813720703127	730.3120727539064	-546.5116577148439	820.6152343750002	796.6355590820315	-524.7156372070314	1005.7998046875	1215.849243164063	-171.4080352783203	1049.349609375	1354.240356445313	-197.5211181640626	1089.959350585938	1360.771484375	-122.3032760620117	1140.128540039063	1362.841430664063	-96.43666839599612	1168.916625976563	1044.481811523438	-27.24981498718262	1167.826293945313	1025.7939453125	-109.0662689208985	1166.8154296875	1010.399108886719	-58.04184341430665	1403.442138671875	947.501892089844	-48.88234710693361	1361.13330078125	900.8771972656252	-11.1827917098999	1483.358764648438	913.0705566406252	-38.57825088500977	1416.568603515625	837.5822753906252	-20.5407886505127	
